<?xml version="1.0" encoding="utf-8"?>
<!-- Generator: Adobe Illustrator 16.0.0, SVG Export Plug-In . SVG Version: 6.00 Build 0)  -->
<!DOCTYPE svg PUBLIC "-//W3C//DTD SVG 1.1//EN" "http://www.w3.org/Graphics/SVG/1.1/DTD/svg11.dtd">
<svg version="1.1" xmlns="http://www.w3.org/2000/svg" xmlns:xlink="http://www.w3.org/1999/xlink" x="0px" y="0px" width="200px"
	 height="200px" viewBox="-214.354 -100.856 200 200" enable-background="new -214.354 -100.856 200 200" xml:space="preserve">
<g id="Layer_3" display="none">
	<rect x="-214.354" y="-100.856" display="inline" fill="#FFFFFF" width="200" height="200"/>
</g>
<g id="Layer_1">
	<g id="Layer_2" display="none">
	</g>
	<g id="Layer_1_1_" display="none">
		
			<line display="inline" fill="none" stroke="#000000" stroke-width="4" stroke-miterlimit="10" x1="160.193" y1="159.74" x2="0" y2="79.87"/>
		
			<line display="inline" fill="none" stroke="#000000" stroke-width="4" stroke-miterlimit="10" x1="0" y1="79.87" x2="160.193" y2="0"/>
		
			<line display="inline" fill="none" stroke="#000000" stroke-width="4" stroke-miterlimit="10" x1="160.486" y1="-0.281" x2="210.486" y2="-0.281"/>
		
			<line display="inline" fill="none" stroke="#000000" stroke-width="4" stroke-miterlimit="10" x1="210.486" y1="-0.281" x2="290.356" y2="159.913"/>
		
			<line display="inline" fill="none" stroke="#000000" stroke-width="4" stroke-miterlimit="10" x1="290.356" y1="159.913" x2="370.226" y2="-0.281"/>
		
			<line display="inline" fill="none" stroke="#000000" stroke-width="4" stroke-miterlimit="10" x1="370.486" y1="-0.281" x2="420.486" y2="-0.281"/>
		
			<line display="inline" fill="none" stroke="#000000" stroke-width="4" stroke-miterlimit="10" x1="420.486" y1="-0.281" x2="500.486" y2="-0.281"/>
		
			<line display="inline" fill="none" stroke="#000000" stroke-width="4" stroke-miterlimit="10" x1="500.486" y1="-0.281" x2="420.583" y2="79.623"/>
		
			<line display="inline" fill="none" stroke="#000000" stroke-width="4" stroke-miterlimit="10" x1="420.583" y1="79.623" x2="500.486" y2="159.525"/>
		
			<line display="inline" fill="none" stroke="#000000" stroke-width="4" stroke-miterlimit="10" x1="500.486" y1="159.525" x2="580.39" y2="79.623"/>
		
			<line display="inline" fill="none" stroke="#000000" stroke-width="4" stroke-miterlimit="10" x1="580.486" y1="-0.281" x2="630.486" y2="-0.281"/>
		
			<line display="inline" fill="none" stroke="#000000" stroke-width="4" stroke-miterlimit="10" x1="630.486" y1="-0.281" x2="790.486" y2="-0.281"/>
		
			<line display="inline" fill="none" stroke="#000000" stroke-width="4" stroke-miterlimit="10" x1="630" y1="79.87" x2="790.193" y2="0"/>
		
			<line display="inline" fill="none" stroke="#000000" stroke-width="4" stroke-miterlimit="10" x1="790.193" y1="159.74" x2="630" y2="79.87"/>
		
			<line display="inline" fill="none" stroke="#000000" stroke-width="4" stroke-miterlimit="10" x1="790.486" y1="-0.281" x2="840.486" y2="-0.281"/>
		
			<line display="inline" fill="none" stroke="#000000" stroke-width="4" stroke-miterlimit="10" x1="840.486" y1="159.719" x2="920.355" y2="-0.474"/>
		
			<line display="inline" fill="none" stroke="#000000" stroke-width="4" stroke-miterlimit="10" x1="920.355" y1="-0.474" x2="1000.225" y2="159.719"/>
		
			<line display="inline" fill="none" stroke="#000000" stroke-width="4" stroke-miterlimit="10" x1="1000.486" y1="-0.281" x2="1050.486" y2="-0.281"/>
		
			<line display="inline" fill="none" stroke="#000000" stroke-width="4" stroke-miterlimit="10" x1="1050.486" y1="-0.281" x2="1210.486" y2="-0.281"/>
		
			<line display="inline" fill="none" stroke="#000000" stroke-width="4" stroke-miterlimit="10" x1="1050" y1="79.87" x2="1210.193" y2="0"/>
		
			<line display="inline" fill="none" stroke="#000000" stroke-width="4" stroke-miterlimit="10" x1="1210.193" y1="159.74" x2="1050" y2="79.87"/>
		
			<line display="inline" fill="none" stroke="#000000" stroke-width="4" stroke-miterlimit="10" x1="0" y1="289.87" x2="160.193" y2="210"/>
		
			<line display="inline" fill="none" stroke="#000000" stroke-width="4" stroke-miterlimit="10" x1="160.193" y1="369.74" x2="0" y2="289.87"/>
		
			<line display="inline" fill="none" stroke="#000000" stroke-width="4" stroke-miterlimit="10" x1="160.486" y1="369.719" x2="420.486" y2="369.719"/>
		
			<line display="inline" fill="none" stroke="#000000" stroke-width="4" stroke-miterlimit="10" x1="420.486" y1="369.719" x2="500.39" y2="289.816"/>
		
			<line display="inline" fill="none" stroke="#000000" stroke-width="4" stroke-miterlimit="10" x1="500.39" y1="289.816" x2="580.293" y2="369.719"/>
		
			<line display="inline" fill="none" stroke="#000000" stroke-width="4" stroke-miterlimit="10" x1="500.486" y1="289.719" x2="500.486" y2="209.719"/>
		
			<line display="inline" fill="none" stroke="#000000" stroke-width="4" stroke-miterlimit="10" x1="580.486" y1="369.719" x2="840.486" y2="369.719"/>
		
			<line display="inline" fill="none" stroke="#000000" stroke-width="4" stroke-miterlimit="10" x1="840.486" y1="209.719" x2="920.355" y2="369.913"/>
		
			<line display="inline" fill="none" stroke="#000000" stroke-width="4" stroke-miterlimit="10" x1="920.355" y1="369.913" x2="1000.226" y2="209.719"/>
		
			<line display="inline" fill="none" stroke="#000000" stroke-width="4" stroke-miterlimit="10" x1="840.486" y1="369.719" x2="920.486" y2="369.719"/>
		
			<line display="inline" fill="none" stroke="#000000" stroke-width="4" stroke-miterlimit="10" x1="500.486" y1="-0.281" x2="580.486" y2="-0.281"/>
		
			<line display="inline" fill="none" stroke="#000000" stroke-width="4" stroke-miterlimit="10" x1="840.486" y1="-0.281" x2="1000.486" y2="-0.281"/>
	</g>
	<g id="Layer_1_copy" display="none">
		
			<line display="inline" fill="none" stroke="#000000" stroke-width="10" stroke-miterlimit="10" x1="160.193" y1="159.74" x2="0" y2="79.87"/>
		
			<line display="inline" fill="none" stroke="#000000" stroke-width="10" stroke-miterlimit="10" x1="0" y1="79.87" x2="160.193" y2="0"/>
		
			<line display="inline" fill="none" stroke="#000000" stroke-width="10" stroke-miterlimit="10" x1="210.486" y1="-0.281" x2="290.356" y2="159.913"/>
		
			<line display="inline" fill="none" stroke="#000000" stroke-width="10" stroke-miterlimit="10" x1="290.356" y1="159.913" x2="370.226" y2="-0.281"/>
		
			<line display="inline" fill="none" stroke="#000000" stroke-width="10" stroke-miterlimit="10" x1="500.486" y1="-0.281" x2="420.583" y2="79.623"/>
		
			<line display="inline" fill="none" stroke="#000000" stroke-width="10" stroke-miterlimit="10" x1="420.583" y1="79.623" x2="500.486" y2="159.525"/>
		
			<line display="inline" fill="none" stroke="#000000" stroke-width="10" stroke-miterlimit="10" x1="580.39" y1="79.623" x2="500.486" y2="159.525"/>
		
			<line display="inline" fill="none" stroke="#000000" stroke-width="10" stroke-miterlimit="10" x1="630" y1="79.87" x2="790.193" y2="0"/>
		
			<line display="inline" fill="none" stroke="#000000" stroke-width="10" stroke-miterlimit="10" x1="790.193" y1="159.74" x2="630" y2="79.87"/>
		
			<line display="inline" fill="none" stroke="#000000" stroke-width="10" stroke-miterlimit="10" x1="840.486" y1="159.719" x2="920.355" y2="-0.474"/>
		
			<line display="inline" fill="none" stroke="#000000" stroke-width="10" stroke-miterlimit="10" x1="920.355" y1="-0.474" x2="1000.225" y2="159.719"/>
		
			<line display="inline" fill="none" stroke="#000000" stroke-width="10" stroke-miterlimit="10" x1="1041" y1="79.87" x2="1201.193" y2="0"/>
		
			<line display="inline" fill="none" stroke="#000000" stroke-width="10" stroke-miterlimit="10" x1="1210.193" y1="159.74" x2="1050" y2="79.87"/>
		
			<line display="inline" fill="none" stroke="#000000" stroke-width="10" stroke-miterlimit="10" x1="630" y1="289.87" x2="790.193" y2="210"/>
		
			<line display="inline" fill="none" stroke="#000000" stroke-width="10" stroke-miterlimit="10" x1="790.193" y1="369.74" x2="630" y2="289.87"/>
		
			<line display="inline" fill="none" stroke="#000000" stroke-width="10" stroke-miterlimit="10" x1="840.486" y1="369.719" x2="920.39" y2="289.816"/>
		
			<line display="inline" fill="none" stroke="#000000" stroke-width="10" stroke-miterlimit="10" x1="920.39" y1="289.816" x2="1000.293" y2="369.719"/>
		
			<line display="inline" fill="none" stroke="#000000" stroke-width="10" stroke-miterlimit="10" x1="920.486" y1="289.719" x2="920.486" y2="209.719"/>
		
			<line display="inline" fill="none" stroke="#000000" stroke-width="10" stroke-miterlimit="10" x1="1050.486" y1="209.719" x2="1130.355" y2="369.913"/>
		
			<line display="inline" fill="none" stroke="#000000" stroke-width="10" stroke-miterlimit="10" x1="1130.355" y1="369.913" x2="1210.226" y2="209.719"/>
	</g>
	<g id="Layer_5" display="none">
		<polyline display="inline" fill="#00BF11" points="500.535,159.622 500.39,79.719 580.486,79.719 		"/>
		<polyline display="inline" fill="#BF3939" points="1051.041,80.878 1130.486,160.526 1130.486,80.719 1050.625,81.038 		"/>
		<polygon display="inline" fill="#FF4C4C" points="1210.391,80.622 1130.487,0.526 1051,81.038 		"/>
		<polyline display="inline" fill="#BF3939" points="630.041,79.878 709.486,159.525 709.486,79.719 629.625,80.038 		"/>
		<polyline display="inline" fill="#BF3939" points="0.041,79.878 79.486,159.525 79.486,79.719 -0.375,80.038 		"/>
		<polyline display="inline" fill="#FFDD04" points="1050.486,209.719 1130.355,369.913 1210.226,209.719 		"/>
		<polyline display="inline" fill="none" stroke="#FF0000" stroke-width="5" stroke-miterlimit="10" points="999.168,369.719 
			918.986,289.719 918.986,209.719 918.986,289.719 839.736,369.719 		"/>
		<polyline display="inline" fill="#FF931E" points="790.193,210 630,289.87 790.193,369.74 		"/>
		<polyline display="inline" fill="#6666FF" points="840.486,159.719 920.355,-0.474 1000.225,159.719 		"/>
		<polyline display="inline" fill="#00FF17" points="500.486,159.526 420.583,79.623 500.486,-0.281 		"/>
		<polyline display="inline" fill="#FFEB68" points="210.486,-0.281 290.356,159.913 370.226,-0.281 		"/>
		<polygon display="inline" fill="#FF4C4C" points="789.391,79.622 709.487,-0.474 630,80.038 		"/>
		<polygon display="inline" fill="#FF4C4C" points="159.391,79.622 79.487,-0.474 0,80.038 		"/>
	</g>
	<polyline fill="#003DD4" points="-193.562,-0.503 -114,79.144 -114,-0.663 -193.978,-0.343 	"/>
	<polygon fill="#001986" points="-33.978,-0.759 -113.999,-80.856 -193.603,-0.343 	"/>
	<g id="Layer_1_copy_2" display="none">
		
			<line display="inline" fill="none" stroke="#000000" stroke-width="10" stroke-miterlimit="10" x1="210.486" y1="-0.281" x2="290.356" y2="159.913"/>
		
			<line display="inline" fill="none" stroke="#000000" stroke-width="10" stroke-miterlimit="10" x1="290.356" y1="159.913" x2="370.226" y2="-0.281"/>
		
			<line display="inline" fill="none" stroke="#000000" stroke-width="10" stroke-miterlimit="10" x1="1210.391" y1="79.622" x2="1130.487" y2="-0.28"/>
		
			<line display="inline" fill="none" stroke="#000000" stroke-width="10" stroke-miterlimit="10" x1="1130.487" y1="-0.28" x2="1050.584" y2="79.622"/>
		
			<line display="inline" fill="none" stroke="#000000" stroke-width="10" stroke-miterlimit="10" x1="1050.584" y1="79.622" x2="1130.487" y2="159.526"/>
		
			<line display="inline" fill="none" stroke="#000000" stroke-width="10" stroke-miterlimit="10" x1="790.391" y1="79.622" x2="710.487" y2="-0.28"/>
		
			<line display="inline" fill="none" stroke="#000000" stroke-width="10" stroke-miterlimit="10" x1="710.487" y1="-0.28" x2="630.584" y2="79.622"/>
		
			<line display="inline" fill="none" stroke="#000000" stroke-width="10" stroke-miterlimit="10" x1="630.584" y1="79.622" x2="710.487" y2="159.526"/>
		
			<line display="inline" fill="none" stroke="#000000" stroke-width="10" stroke-miterlimit="10" x1="159.391" y1="79.622" x2="79.487" y2="-0.28"/>
		
			<line display="inline" fill="none" stroke="#000000" stroke-width="10" stroke-miterlimit="10" x1="79.487" y1="-0.28" x2="-0.416" y2="79.622"/>
		
			<line display="inline" fill="none" stroke="#000000" stroke-width="10" stroke-miterlimit="10" x1="-0.416" y1="79.622" x2="79.487" y2="159.525"/>
		
			<line display="inline" fill="none" stroke="#000000" stroke-width="10" stroke-miterlimit="10" x1="500.486" y1="-0.281" x2="420.583" y2="79.623"/>
		
			<line display="inline" fill="none" stroke="#000000" stroke-width="10" stroke-miterlimit="10" x1="420.583" y1="79.623" x2="500.486" y2="159.525"/>
		
			<line display="inline" fill="none" stroke="#000000" stroke-width="10" stroke-miterlimit="10" x1="500.486" y1="159.525" x2="580.39" y2="79.623"/>
		
			<line display="inline" fill="none" stroke="#000000" stroke-width="10" stroke-miterlimit="10" x1="840.486" y1="159.719" x2="920.355" y2="-0.474"/>
		
			<line display="inline" fill="none" stroke="#000000" stroke-width="10" stroke-miterlimit="10" x1="920.355" y1="-0.474" x2="1000.225" y2="159.719"/>
		
			<line display="inline" fill="none" stroke="#000000" stroke-width="10" stroke-miterlimit="10" x1="630" y1="289.87" x2="790.193" y2="210"/>
		
			<line display="inline" fill="none" stroke="#000000" stroke-width="10" stroke-miterlimit="10" x1="790.193" y1="369.74" x2="630" y2="289.87"/>
		
			<line display="inline" fill="none" stroke="#000000" stroke-width="10" stroke-miterlimit="10" x1="840.486" y1="369.719" x2="920.39" y2="289.816"/>
		
			<line display="inline" fill="none" stroke="#000000" stroke-width="10" stroke-miterlimit="10" x1="920.39" y1="289.816" x2="1000.293" y2="369.719"/>
		
			<line display="inline" fill="none" stroke="#000000" stroke-width="10" stroke-miterlimit="10" x1="920.486" y1="289.719" x2="920.486" y2="209.719"/>
		
			<line display="inline" fill="none" stroke="#000000" stroke-width="10" stroke-miterlimit="10" x1="1050.486" y1="209.719" x2="1130.355" y2="369.913"/>
		
			<line display="inline" fill="none" stroke="#000000" stroke-width="10" stroke-miterlimit="10" x1="1130.355" y1="369.913" x2="1210.226" y2="209.719"/>
	</g>
</g>
<g id="Layer_2_1_">
	
		<rect x="-214.354" y="-100.856" fill="none" stroke="#17009F" stroke-width="16" stroke-miterlimit="10" width="200" height="200"/>
</g>
</svg>
