<?xml version="1.0" encoding="utf-8"?>
<!-- Generator: Adobe Illustrator 16.0.0, SVG Export Plug-In . SVG Version: 6.00 Build 0)  -->
<!DOCTYPE svg PUBLIC "-//W3C//DTD SVG 1.1//EN" "http://www.w3.org/Graphics/SVG/1.1/DTD/svg11.dtd">
<svg version="1.1" xmlns="http://www.w3.org/2000/svg" xmlns:xlink="http://www.w3.org/1999/xlink" x="0px" y="0px" width="250px"
	 height="250px" viewBox="-239.354 -125.856 250 250" enable-background="new -239.354 -125.856 250 250" xml:space="preserve">
<g id="Layer_4">
	<g>
		<polyline fill="#003DD4" points="-193.562,-0.503 -114,79.144 -114,-0.663 -193.978,-0.343 		"/>
		<polygon fill="#001986" points="-33.978,-0.759 -113.999,-80.856 -193.603,-0.343 		"/>
	</g>
</g>
<g id="Layer_2_1_" display="none">
	<g display="inline">
		<polyline fill="#003DD4" points="-170.877,-56.367 -170.938,56.21 -114.506,-0.222 -171.285,-56.548 		"/>
		<polygon fill="#001986" points="-57.854,56.295 -57.8,-56.927 -171.02,-56.283 		"/>
	</g>
</g>
<g id="Layer_3" display="none">
	<g display="inline">
		<polyline fill="#003DD4" points="-114.554,-79.812 -194.201,-0.25 -114.395,-0.25 -114.714,-80.228 		"/>
		<polygon fill="#001986" points="-114.298,79.771 -34.201,-0.249 -114.714,-79.853 		"/>
	</g>
</g>
<g id="Layer_5" display="none">
	<g display="inline">
		<polyline fill="#003DD4" points="-58.33,-56.866 -170.906,-56.927 -114.475,-0.495 -58.148,-57.274 		"/>
		<polygon fill="#001986" points="-170.99,56.156 -57.771,56.212 -58.414,-57.009 		"/>
	</g>
</g>
<g id="Layer_6" display="none">
	<g display="inline">
		<polyline fill="#003DD4" points="-34.322,-0.865 -113.882,-80.511 -113.883,-0.705 -33.905,-1.025 		"/>
		<polygon fill="#001986" points="-193.904,-0.609 -113.885,79.49 -34.281,-1.025 		"/>
	</g>
</g>
<g id="Layer_7" display="none">
	<g display="inline">
		<polyline fill="#003DD4" points="-57.267,55.681 -57.206,-56.896 -113.638,-0.465 -56.859,55.862 		"/>
		<polygon fill="#001986" points="-170.29,-56.98 -170.345,56.24 -57.124,55.596 		"/>
	</g>
</g>
<g id="Layer_8" display="none">
	<g display="inline">
		<polyline fill="#003DD4" points="-114.152,78.613 -34.505,-0.948 -114.311,-0.949 -113.992,79.03 		"/>
		<polygon fill="#001986" points="-114.408,-80.969 -194.505,-0.95 -113.991,78.654 		"/>
	</g>
</g>
<g id="Layer_9" display="none">
	<g display="inline">
		<polyline fill="#003DD4" points="-170.377,55.667 -57.8,55.728 -114.23,-0.705 -170.559,56.075 		"/>
		<polygon fill="#001986" points="-57.717,-57.356 -170.936,-57.41 -170.292,55.81 		"/>
	</g>
</g>
</svg>
